<svg xmlns="http://www.w3.org/2000/svg" width="320" height="489.037"><g fill="none" stroke="#FF1212" stroke-miterlimit="10"><path stroke-width="2" d="M-3557.131 218.037h320v500h-320z"/><path stroke-width="2" d="M-3533.631 230.537h82v82h-82z"/><circle cx="-3513.381" cy="371.954" r="21.25"/><circle cx="-3513.381" cy="446.787" r="21.25"/><circle cx="-3513.381" cy="521.62" r="21.25"/><circle cx="-3513.381" cy="596.453" r="21.25"/><circle cx="-3513.381" cy="671.286" r="21.25"/><path stroke-width="2" d="M-3480.631 366.037h198.5v12.5h-198.5zM-3480.631 440.537h198.5v12.5h-198.5zM-3480.631 516.037h198.5v12.5h-198.5zM-3480.631 589.537h198.5v12.5h-198.5zM-3480.631 665.037h198.5v12.5h-198.5z"/></g><g fill="none" stroke-miterlimit="10"><path stroke="#DDA505" d="M-3458.568 312.974l6.937-6.937v-68.125l-7.375-7.375h-67.875l-7.375 7.375v68.125l6.938 6.937z"/><path stroke="#DDA505" d="M-3523.176 302.974l-1.08-1.079v-59.841l1.517-1.517h59.591l1.517 1.517v59.841l-1.079 1.079z"/><path stroke="#724106" d="M-3180.745-43.526l6.937-6.937v-68.125l-7.375-7.375h-67.875l-7.375 7.375v68.125l6.938 6.937z"/><path stroke="#724106" d="M-3245.353-53.526l-1.08-1.079v-59.841l1.517-1.517h59.592l1.516 1.517v59.841l-1.079 1.079z"/><g stroke="#DDA505"><path d="M-3431.912 61.474l6.937-6.937v-68.125l-7.375-7.375h-67.875l-7.375 7.375v68.125l6.938 6.937z"/><path d="M-3496.52 51.474l-1.08-1.079V-9.446l1.517-1.517h59.591l1.517 1.517v59.841l-1.079 1.079zM-3497.6 4.204l-5.437 5.437v25.896l5.437 5.333M-3434.975 4.204l5.438 5.437v25.896l-5.438 5.333"/></g><g stroke="#724106"><path d="M-3606.433 61.474l6.938-6.937v-68.125l-7.375-7.375h-67.875l-7.375 7.375v68.125l6.937 6.937z"/><path d="M-3671.041 51.474l-1.079-1.079V-9.446l1.517-1.517h59.591l1.517 1.517v59.841l-1.08 1.079z"/><path d="M-3672.12 4.204l-5.438 5.437v25.896l5.438 5.333M-3609.495 4.204l5.437 5.437v25.896l-5.437 5.333"/></g><g stroke="#9B9B9B"><path d="M-3519.079 61.474l6.938-6.937v-68.125l-7.375-7.375h-67.875l-7.375 7.375v68.125l6.937 6.937z"/><path d="M-3583.687 51.474l-1.079-1.079V-9.446l1.517-1.517h59.591l1.517 1.517v59.841l-1.08 1.079zM-3584.766 4.204l-5.438 5.437v25.896l5.438 5.333M-3522.141 4.204l5.437 5.437v25.896l-5.437 5.333"/></g><g stroke="#CCC"><path d="M-3346.079 61.474l6.938-6.937v-68.125l-7.375-7.375h-67.875l-7.375 7.375v68.125l6.937 6.937z"/><path d="M-3410.687 51.474l-1.079-1.079V-9.446l1.517-1.517h59.591l1.517 1.517v59.841l-1.08 1.079zM-3411.766 4.204l-5.438 5.437v25.896l5.438 5.333M-3349.141 4.204l5.437 5.437v25.896l-5.437 5.333"/></g><g stroke="#0067FC"><path d="M-3260.579 61.474l6.938-6.937v-68.125l-7.375-7.375h-67.875l-7.375 7.375v68.125l6.937 6.937z"/><path d="M-3325.187 51.474l-1.079-1.079V-9.446l1.517-1.517h59.591l1.517 1.517v59.841l-1.08 1.079zM-3326.266 4.204l-5.438 5.437v25.896l5.438 5.333M-3263.641 4.204l5.437 5.437v25.896l-5.437 5.333"/></g><g stroke="#58A1F9"><path d="M-3174.078 61.474l6.937-6.937v-68.125l-7.375-7.375h-67.875l-7.375 7.375v68.125l6.937 6.937z"/><path d="M-3238.687 51.474l-1.079-1.079V-9.446l1.517-1.517h59.591l1.517 1.517v59.841l-1.08 1.079zM-3239.766 4.204l-5.438 5.437v25.896l5.438 5.333M-3177.141 4.204l5.438 5.437v25.896l-5.438 5.333"/></g><g stroke="#F4921E"><path d="M-3087.578 61.474l6.937-6.937v-68.125l-7.375-7.375h-67.875l-7.375 7.375v68.125l6.938 6.937z"/><path d="M-3152.187 51.474l-1.079-1.079V-9.446l1.517-1.517h59.591l1.517 1.517v59.841l-1.08 1.079zM-3153.266 4.204l-5.437 5.437v25.896l5.437 5.333M-3090.641 4.204l5.438 5.437v25.896l-5.438 5.333"/></g></g><path fill="#2BA0FF" d="M-2386.501 253.037h25v25h-25z" opacity=".5"/><path fill="#DDA505" d="M-2386.501 287.537h25v25h-25z"/><path fill="#F44242" d="M-2351.876 322.162h25v25h-25z"/><path fill="#01122E" d="M-2386.501 322.037h25v25h-25z" opacity=".5"/><path fill="#5CEA00" d="M-2386.501 356.537h25v25h-25z"/><path fill="#FFF" d="M-2386.501 391.037h25v25h-25z"/><path fill="#2BA0FF" d="M-2171.376 644.477l-102.19 59v117.998l102.19 59 102.189-59V703.477l-102.189-59zm92.189 171.225l-92.189 53.227-92.19-53.227V709.25l92.19-53.227 92.189 53.227v106.452z"/><path fill="none" stroke="#5CEA00" stroke-miterlimit="10" d="M-1876.187 815.702l-92.189 53.226-92.19-53.226V709.25l92.19-53.226 92.189 53.226z"/><g><path fill="#01122E" d="M-2810.001 218.037h320v500h-320z"/><path fill="#58A1F9" d="M159.822 326.141l-11.501-5.955c-.607-.314-15.015-7.843-27.665-20.552a95.824 95.824 0 01-3.148-3.318l-.66-.732.037-.03c-2.209-2.971-2.68-6.963-1.21-10.396a10.372 10.372 0 01-3.489-7.788v-87.721c0-.058.002-.163.006-.303.094-3.783-.659-7.781-2.24-11.885-4.391-11.409-26.158-18.983-33.438-20.737l-3.661-.882 59.421-14.934 27.549 10.972v174.261zm-40.501-30.588a92.91 92.91 0 002.649 2.772c12.447 12.507 26.605 19.904 27.203 20.214l8.795 4.554V153.137l-25.824-10.286-51.793 13.017c3.742 1.147 9.082 3.075 14.352 5.729 9.159 4.61 14.871 9.724 16.979 15.198 1.668 4.331 2.463 8.569 2.363 12.598a4.96 4.96 0 00-.005.244v87.732a8.55 8.55 0 003.346 6.802l.61.472-.354.685c-1.646 3.189-1.146 7.104 1.242 9.744l.437.481zm21.455-3.343l-1.529-1.31a87.803 87.803 0 01-5.3-4.915 71.53 71.53 0 01-2.096-2.21l-.517-.553a8.525 8.525 0 00-.822-.725l-.612-.476.359-.688a8.468 8.468 0 00.972-3.966v-87.394c-.001-.086.001-.207.004-.355l.001-.091c.042-2.727.168-11.026-3.232-19.229l-.402-.973c-.854-2.065-1.657-4.011-2.555-5.821l-.512-1.032 6.398-1.6 9.843 3.92V292.21zm-8.549-10.695c.143.129.283.26.418.396l.14.14.436.477c.655.72 1.343 1.443 2.046 2.154a84.242 84.242 0 003.656 3.474V166.052l-8.118-3.233-3.598.899c.728 1.559 1.401 3.188 2.106 4.896l.404.978c3.548 8.556 3.417 17.145 3.373 19.967l-.002.093c-.002.13-.004.237-.002.317v87.4c0 1.424-.295 2.843-.859 4.146zM160.198 326.141V151.88l27.549-10.972 59.422 14.934-3.661.882c-7.279 1.754-29.047 9.328-33.439 20.737-1.58 4.104-2.333 8.104-2.237 11.887.003.138.005.243.005.312v87.71c0 3.004-1.264 5.803-3.488 7.788 1.48 3.461.99 7.488-1.265 10.467l.027.026-.598.665a95.878 95.878 0 01-3.147 3.318c-12.65 12.709-27.058 20.237-27.665 20.552l-11.503 5.955zm1.856-173.004v169.956l8.795-4.553c.597-.311 14.755-7.708 27.202-20.215a92.976 92.976 0 002.757-2.89l.328-.364c2.39-2.64 2.889-6.555 1.244-9.744l-.354-.685.61-.472a8.551 8.551 0 003.346-6.802v-87.721c.001-.064-.001-.147-.003-.256-.104-4.027.692-8.266 2.36-12.598 2.106-5.475 7.819-10.588 16.979-15.198 5.27-2.652 10.609-4.581 14.352-5.729l-51.793-13.017-25.823 10.288zm17.191 139.073V164.795l9.842-3.92 6.399 1.6-.512 1.032c-.898 1.809-1.701 3.754-2.552 5.812l-.405.981c-3.4 8.2-3.274 16.5-3.232 19.228l.001.099c.002.145.005.263.005.353l-.001 87.39c0 1.398.326 2.733.972 3.966l.358.688-.612.476a8.624 8.624 0 00-.821.724l-.095.095-.422.462a73.86 73.86 0 01-2.097 2.207 87.225 87.225 0 01-5.299 4.915l-1.529 1.307zm1.854-126.158v122.102a83.654 83.654 0 003.657-3.472c.702-.71 1.39-1.436 2.044-2.153l.577-.618c.135-.136.274-.268.417-.396a10.483 10.483 0 01-.857-4.146v-87.394c.001-.085-.002-.189-.004-.317l-.002-.099c-.042-2.825-.173-11.414 3.373-19.969l.403-.971c.707-1.714 1.381-3.345 2.108-4.902l-3.597-.899-8.119 3.234z"/><path fill="none" stroke="#58A1F9" stroke-linecap="round" stroke-miterlimit="10" d="M122.636 279.939v-87.193s2.675-23.316-15.905-35.339l24.409-5.829 18.216 7.651v149.368s-13.214-7.981-25.916-21.113M197.205 279.939v-87.193s-2.676-23.316 15.904-35.339l-24.408-5.829-18.216 7.651v149.368s13.214-7.981 25.915-21.113" opacity=".3"/></g><g><path fill="#5CEA00" d="M-2737.251 366.276h206.5v12.021h-206.5z"/><path fill="#F44242" d="M-2625.527 366.276h94.776v12.021h-94.776z"/><path fill="#5CEA00" d="M-2737.251 440.776h206.5v12.021h-206.5z"/><path fill="#F44242" d="M-2630.001 440.776h99.25v12.021h-99.25z"/><path fill="#5CEA00" d="M-2737.251 515.276h206.5v12.021h-206.5z"/><path fill="#F44242" d="M-2630.001 515.276h99.25v12.021h-99.25z"/><path fill="#5CEA00" d="M-2737.251 589.776h206.5v12.021h-206.5z"/><path fill="#F44242" d="M-2630.001 589.776h99.25v12.021h-99.25z"/><path fill="#5CEA00" d="M-2737.251 664.276h206.5v12.021h-206.5z"/><path fill="#F44242" d="M-2630.001 664.276h99.25v12.021h-99.25z"/><path fill="#DDA505" d="M-2634.598 440.776h9.194v12.032h-9.194z"/></g><g fill="none" stroke="#FFF" stroke-miterlimit="10" stroke-width="2"><path d="M-3557.131 218.371h320v491h-320z"/><path d="M-3533.631 230.537h82v82h-82z"/><circle cx="-3513.381" cy="446.787" r="21.25"/><circle cx="-3513.381" cy="521.62" r="21.25"/><circle cx="-3513.381" cy="596.453" r="21.25"/><circle cx="-3513.381" cy="671.286" r="21.25"/><path d="M-3480.631 366.037h198.5v12.5h-198.5zM-3480.631 440.537h198.5v12.5h-198.5zM-3480.631 516.037h198.5v12.5h-198.5zM-3480.631 589.537h198.5v12.5h-198.5zM-3480.631 665.037h198.5v12.5h-198.5zM-3557.131 331.704h320M-3557.131 407.037h320M-3557.131 482.371h320M-3557.131 557.704h320M-3557.131 633.038h320"/></g></svg>